<svg width="800" height="600" viewBox="0 0 800 600" fill="none" xmlns="http://www.w3.org/2000/svg">
  <rect width="800" height="600" fill="#1a1a1a"/>
  <path d="M400 250C428.719 250 452 273.281 452 302C452 323.688 438.312 342.375 419 350.781V370H381V350.781C361.688 342.375 348 323.688 348 302C348 273.281 371.281 250 400 250ZM400 270C384.688 270 371.5 282.188 370.281 298H389.844C391.062 298 392 298.938 392 300.156V303.844C392 305.062 391.062 306 389.844 306H370.281C371.219 318.156 379.625 328.062 391.125 331.844L394.25 333.062V352H405.75V333.062L408.875 331.844C420.375 328.062 428.781 318.156 429.719 306H410.156C408.938 306 408 305.062 408 303.844V300.156C408 298.938 408.938 298 410.156 298H429.719C428.5 282.188 415.312 270 400 270Z" fill="#00FF00"/>
  <text x="400" y="420" font-family="monospace" font-size="24" text-anchor="middle" fill="#FFFFFF">GitHub Project</text>
  <text x="400" y="460" font-family="monospace" font-size="16" text-anchor="middle" fill="#CCCCCC">Repository Preview</text>
</svg>
